# xmcd
#
# Track frame offsets:
#  150
#  21068
#  47670
#  64433
#  90740
#  107135
#  130240
#  145320
#  165123
#  176575
#
# Disc length: 2610 seconds
#
# Revision: 0
# Processed by: cddbd v1.5.1PL0 Copyright (c) Steve Scherf et al.
# Submitted via: Collectorz.com Music Collector 6.9
#
DISCID=830a300a
DTITLE=calvin russell - Calvin Russell
DYEAR=1997
DGENRE=Country
TTITLE0=Let The Music Play
TTITLE1=Nothin' Can Save Me
TTITLE2=I Want To Change The World
TTITLE3=Desperation
TTITLE4=Lovin' You
TTITLE5=Mr Mudd And Mr Gold
TTITLE6=My Love Is So
TTITLE7=Time Flies
TTITLE8=Cut The Silver Strings
TTITLE9=Drive By
EXTD=
EXTT0=
EXTT1=
EXTT2=
EXTT3=
EXTT4=
EXTT5=
EXTT6=
EXTT7=
EXTT8=
EXTT9=
PLAYORDER=
